<svg xmlns="http://www.w3.org/2000/svg" viewBox="0 0 632.2 137.8"><defs><style>.cls-1{fill:#775029;}</style></defs><g id="Layer_2" data-name="Layer 2"><g id="Layer_1-2" data-name="Layer 1"><path class="cls-1" d="M175.6,34.3,151,96.5a3.58,3.58,0,0,0,3.3,4.9h8.9a3.51,3.51,0,0,0,3.3-2.4l3.2-8.6A3.65,3.65,0,0,1,173,88h20.4a3.51,3.51,0,0,1,3.3,2.4l3.2,8.6a3.65,3.65,0,0,0,3.3,2.4h9.3a3.6,3.6,0,0,0,3.3-4.9L191.4,34.3a3.71,3.71,0,0,0-3.3-2.3h-9.4A3.67,3.67,0,0,0,175.6,34.3Zm1.7,41.1a1.3,1.3,0,0,1-1.2-1.9l2.7-7.2c.5-1.7,1.1-3.2,1.7-4.8s1.1-3.1,1.7-4.7h0a1.39,1.39,0,0,1,2.6,0h0c.5,1.7,1,3.3,1.6,4.9s1,3.1,1.6,4.4l2.8,7.3a1.41,1.41,0,0,1-1.2,1.9H177.3Z"/><path class="cls-1" d="M300.5,31.9h-9.3a3.43,3.43,0,0,0-3.4,2.6L278.4,68c-.4,1.4-.7,2.6-1.1,3.9a1.06,1.06,0,0,1-.9.8h0c-.6,0-.7-.7-.9-1-.5-1.6-.7-2.3-1.3-4l-9-21.4a3.46,3.46,0,0,0-3.3-2.3h-8.2a3.46,3.46,0,0,0-3.3,2.3l-9.1,21.5c-.5,1.5-1,2.8-1.4,4.2a1,1,0,0,1-1,.8.88.88,0,0,1-.9-.8c-.3-1.4-.7-2.9-1.1-4.3l-9.4-33.1a3.54,3.54,0,0,0-3.4-2.6h-9.3a3.55,3.55,0,0,0-3.4,4.6l18.2,60.7a3.45,3.45,0,0,0,3.4,2.5h7.9a3.46,3.46,0,0,0,3.3-2.3l9.9-25.9a3.57,3.57,0,0,1,6.6-.1l10.7,26.1a3.51,3.51,0,0,0,3.3,2.2h7.9a3.54,3.54,0,0,0,3.4-2.5l18.2-60.7A4,4,0,0,0,300.5,31.9Z"/><path class="cls-1" d="M331.5,71.8h19.8a3.54,3.54,0,0,0,3.5-3.5V62a3.54,3.54,0,0,0-3.5-3.5H331.5A3.54,3.54,0,0,1,328,55V49.5a3.54,3.54,0,0,1,3.5-3.5h24.2a3.54,3.54,0,0,0,3.5-3.5V35.6a3.54,3.54,0,0,0-3.5-3.5H315.5a3.54,3.54,0,0,0-3.5,3.5V96.3a3.54,3.54,0,0,0,3.5,3.5h41.1a3.54,3.54,0,0,0,3.5-3.5V89.4a3.54,3.54,0,0,0-3.5-3.5H331.5a3.54,3.54,0,0,1-3.5-3.5V75.6A3.55,3.55,0,0,1,331.5,71.8Z"/><path class="cls-1" d="M603.6,71.4h19.8a3.54,3.54,0,0,0,3.5-3.5V61.6a3.54,3.54,0,0,0-3.5-3.5H603.6a3.54,3.54,0,0,1-3.5-3.5V49.1a3.54,3.54,0,0,1,3.5-3.5h24.2a3.54,3.54,0,0,0,3.5-3.5V35.2a3.54,3.54,0,0,0-3.5-3.5H587.6a3.54,3.54,0,0,0-3.5,3.5V95.9a3.54,3.54,0,0,0,3.5,3.5h41.1a3.54,3.54,0,0,0,3.5-3.5V89a3.54,3.54,0,0,0-3.5-3.5H603.6a3.54,3.54,0,0,1-3.5-3.5V75.2A3.68,3.68,0,0,1,603.6,71.4Z"/><path class="cls-1" d="M389.4,51.2a17.29,17.29,0,0,1,6-3.9,20.16,20.16,0,0,1,7.3-1.4,18.53,18.53,0,0,1,5.8.9,23,23,0,0,1,5,2.4,15.76,15.76,0,0,1,1.5,1.2,4,4,0,0,0,5.4-.4l5.1-5.8a4,4,0,0,0-.3-5.5,32.53,32.53,0,0,0-4.2-3.1,32.14,32.14,0,0,0-8.7-3.7,38.06,38.06,0,0,0-9.5-1.2,39.1,39.1,0,0,0-14.3,2.6,33.54,33.54,0,0,0-18.8,18.4,35.3,35.3,0,0,0-2.7,14,38.17,38.17,0,0,0,2.5,14.2A32,32,0,0,0,376.8,91,32.93,32.93,0,0,0,388,98.3a37.64,37.64,0,0,0,14.1,2.5,40.45,40.45,0,0,0,9.8-1.2,39.06,39.06,0,0,0,8.9-3.3,19.63,19.63,0,0,0,3.7-2.4,3.88,3.88,0,0,0,.9-5.2l-3.8-6.1a3.9,3.9,0,0,0-5.5-1.1l-1.1.8a18.73,18.73,0,0,1-5.2,2.3,19.16,19.16,0,0,1-5.9.9,24.5,24.5,0,0,1-8.3-1.3,18.07,18.07,0,0,1-6.4-3.9,17,17,0,0,1-4-6.3,21.22,21.22,0,0,1-1.4-8.1,23.49,23.49,0,0,1,1.4-8.2A19.74,19.74,0,0,1,389.4,51.2Z"/><path class="cls-1" d="M490.5,40.3a33.75,33.75,0,0,0-11.1-7.4,37.28,37.28,0,0,0-14.1-2.6,38,38,0,0,0-14.1,2.6,30.92,30.92,0,0,0-11.1,7.4,33.75,33.75,0,0,0-7.4,11.1,37.28,37.28,0,0,0-2.6,14.1,38,38,0,0,0,2.6,14.1,30.08,30.08,0,0,0,7.4,11.1,33.75,33.75,0,0,0,11.1,7.4,39.53,39.53,0,0,0,28.2,0,30.08,30.08,0,0,0,11.1-7.4,32.93,32.93,0,0,0,7.3-11.2,37.48,37.48,0,0,0,2.5-14,38,38,0,0,0-2.5-14.1A33,33,0,0,0,490.5,40.3Zm-8.2,33.1a20,20,0,0,1-3.8,6.3,16.1,16.1,0,0,1-5.8,4.1,17.61,17.61,0,0,1-7.3,1.4,19.37,19.37,0,0,1-7.3-1.4,21.22,21.22,0,0,1-5.9-4,16.62,16.62,0,0,1-3.8-6.3,23,23,0,0,1-1.3-7.9,22.59,22.59,0,0,1,1.3-7.9,18.32,18.32,0,0,1,3.8-6.3,17.41,17.41,0,0,1,5.9-4.1,17.61,17.61,0,0,1,7.3-1.4,19.37,19.37,0,0,1,7.3,1.4,18,18,0,0,1,5.8,4.1,19,19,0,0,1,3.8,6.3,22.2,22.2,0,0,1,1.3,7.9A22.81,22.81,0,0,1,482.3,73.4Z"/><path class="cls-1" d="M564.9,41.4a31.05,31.05,0,0,0-10.7-7A37.53,37.53,0,0,0,540.5,32H515.7a3.59,3.59,0,0,0-3.6,3.6V96.1a3.59,3.59,0,0,0,3.6,3.6h24.8a37.91,37.91,0,0,0,13.7-2.4,29.69,29.69,0,0,0,10.7-7,30.81,30.81,0,0,0,6.9-10.7,37.53,37.53,0,0,0,2.4-13.7,37.91,37.91,0,0,0-2.4-13.7A30.32,30.32,0,0,0,564.9,41.4Zm-8.5,32.4a16.57,16.57,0,0,1-3.5,6.1,14.53,14.53,0,0,1-5.5,3.9,18.63,18.63,0,0,1-7.3,1.4h-7.8a3.59,3.59,0,0,1-3.6-3.6V50.1a3.59,3.59,0,0,1,3.6-3.6h7.8a18.63,18.63,0,0,1,7.3,1.4,16.27,16.27,0,0,1,5.5,3.9,17.42,17.42,0,0,1,3.5,6.1,25.34,25.34,0,0,1,1.2,8A25.61,25.61,0,0,1,556.4,73.8Z"/><path class="cls-1" d="M68.9,0a68.9,68.9,0,1,0,68.9,69h0A69.05,69.05,0,0,0,68.9,0h0m0,126.2a57.3,57.3,0,1,1,57.3-57.3,57.36,57.36,0,0,1-57.3,57.3Z"/><path class="cls-1" d="M77.1,33.3A3.71,3.71,0,0,0,73.8,31H64.4a3.33,3.33,0,0,0-3.3,2.3l-12,30.3a3.06,3.06,0,0,0,1.4,3.9,37.59,37.59,0,0,0,8.6,3.4,3.15,3.15,0,0,0,3.7-2l.6-1.6.7-2c.5-1.7,1.1-3.2,1.7-4.8s1.1-3.1,1.7-4.7a1.39,1.39,0,0,1,2.6,0c.5,1.7,1,3.3,1.6,4.9a47.16,47.16,0,0,0,1.6,4.5L74.7,69a3.09,3.09,0,0,0,3.7,1.9,38.24,38.24,0,0,0,9.2-3.6A3.06,3.06,0,0,0,89,63.4Z"/><path class="cls-1" d="M47.4,77.1a3.11,3.11,0,0,0-4.3,1.7l-6.7,17a3.58,3.58,0,0,0,3.3,4.9h8.9a3.42,3.42,0,0,0,3.3-2.4l3.2-8.6,2-5.2a3.2,3.2,0,0,0-2-4.1A59.45,59.45,0,0,1,47.4,77.1Z"/><path class="cls-1" d="M90.5,77.1a57.27,57.27,0,0,1-8.1,3.3,3.14,3.14,0,0,0-2.1,4.1L82.7,91l2.7,7.4a3.51,3.51,0,0,0,3.3,2.4H98a3.67,3.67,0,0,0,3.3-5l-6.6-17A2.92,2.92,0,0,0,90.5,77.1Z"/></g></g></svg>